<?xml version="1.0" standalone="no"?>
<!DOCTYPE svg PUBLIC "-//W3C//DTD SVG 20010904//EN"
 "http://www.w3.org/TR/2001/REC-SVG-20010904/DTD/svg10.dtd">
<svg version="1.0" xmlns="http://www.w3.org/2000/svg"
 width="1280.000000pt" height="640.000000pt" viewBox="0 0 1280.000000 640.000000"
 preserveAspectRatio="xMidYMid meet">
<g transform="translate(0.000000,640.000000) scale(0.100000,-0.100000)"
fill="#fff" stroke="none">
<path d="M310 4433 c-58 -2 -108 -7 -113 -12 -4 -4 -14 -48 -23 -97 -8 -49
-21 -92 -27 -96 -7 -4 -42 -8 -78 -8 l-66 0 2 -85 c1 -68 5 -89 21 -106 15
-16 20 -41 24 -107 l5 -87 355 -5 c258 -4 361 -8 377 -17 30 -18 115 -16 149
2 25 13 218 15 1530 15 826 0 1516 -3 1533 -6 24 -5 33 -13 39 -38 12 -45 53
-64 166 -76 53 -5 107 -15 118 -21 14 -7 170 -12 482 -13 770 -4 1848 -26
2071 -41 116 -8 282 -20 370 -26 171 -12 167 -11 212 -50 25 -21 31 -35 37
-86 10 -90 40 -188 70 -231 14 -21 48 -54 74 -75 82 -62 113 -69 344 -76 192
-6 208 -7 230 -27 36 -33 94 -60 342 -155 327 -127 378 -133 458 -61 51 46 68
85 68 158 0 81 -31 131 -107 172 -32 17 -177 76 -323 132 -146 55 -271 107
-278 114 -13 13 -3 58 16 70 17 11 80 -23 87 -46 12 -37 46 -68 76 -68 29 0
274 -88 554 -200 335 -133 1109 -413 2565 -928 451 -160 821 -282 852 -282 41
0 65 25 72 77 3 26 24 185 46 353 56 427 86 623 122 785 40 179 43 212 24 257
-11 26 -23 38 -43 42 -72 15 -712 90 -1203 141 -80 9 -183 20 -230 25 -47 5
-173 19 -280 30 -107 11 -265 27 -350 36 -179 19 -362 21 -405 4 -16 -6 -80
-43 -142 -81 -132 -83 -224 -118 -307 -119 -101 0 -410 98 -891 282 -320 123
-375 148 -397 185 -29 49 -89 113 -144 154 -30 22 -54 44 -54 49 0 5 23 39 51
75 57 74 52 74 -68 -7 -40 -26 -75 -48 -78 -48 -3 0 -24 15 -47 33 l-40 32
-695 3 c-655 2 -697 1 -715 -15 -19 -17 -83 -18 -1128 -21 -1107 -4 -1107 -4
-1148 17 -51 26 -90 27 -139 2 -37 -18 -96 -19 -1706 -25 -1667 -7 -1668 -7
-1694 14 -30 23 -95 26 -131 6 -21 -11 -38 -9 -123 14 -54 15 -105 32 -113 39
-7 6 -17 27 -20 45 -4 19 -16 46 -27 60 -17 21 -28 26 -62 24 -23 -1 -89 -4
-147 -5z m7672 -844 c52 -37 71 -117 49 -197 -14 -47 4 -30 25 23 12 32 15 59
10 93 -3 26 -7 56 -8 67 -2 11 4 21 14 23 26 5 179 -39 185 -54 6 -16 -65
-207 -92 -248 -11 -17 -42 -44 -69 -61 -44 -27 -60 -30 -142 -33 -123 -5 -185
13 -252 73 -64 58 -85 108 -85 205 0 113 3 118 71 123 31 2 104 4 160 5 92 2
107 0 134 -19z m529 -260 c154 -51 378 -138 448 -173 65 -33 91 -73 91 -142 0
-68 -34 -132 -86 -162 -62 -37 -116 -27 -369 68 -281 105 -334 129 -367 169
-70 82 -37 204 71 261 51 27 74 25 212 -21z"/>
</g>
</svg>
